<?xml version="1.0" encoding="UTF-8" standalone="no"?>
<!DOCTYPE svg PUBLIC "-//W3C//DTD SVG 1.1//EN" "http://www.w3.org/Graphics/SVG/1.1/DTD/svg11.dtd">
<svg width="100%" height="100%" viewBox="0 0 840 380" version="1.1" xmlns="http://www.w3.org/2000/svg" xmlns:xlink="http://www.w3.org/1999/xlink" xml:space="preserve" xmlns:serif="http://www.serif.com/" style="fill-rule:evenodd;clip-rule:evenodd;stroke-linejoin:round;stroke-miterlimit:2;">
    <g id="Layer-1" serif:id="Layer 1" transform="matrix(2.83465,0,0,2.83465,107.076,-252.752)">
        <g transform="matrix(2.96126,0,0,2.94293,-37.7741,89.1652)">
            <rect x="0" y="0" width="100.07" height="45.607" style="fill:rgb(21,31,37);"/>
        </g>
        <path id="path41" d="M33.665,217.609C30.211,217.213 23.291,215.474 19.73,214.106C-1.096,206.106 -15.978,186.829 -18.531,164.543C-21.15,141.684 -11.093,119.584 7.696,106.905C18.056,99.914 31.843,96.451 45.667,97.367C57.849,98.174 70.31,102.79 78.997,109.714C81.61,111.797 86.688,116.921 88.949,119.756C94.695,126.963 98.603,135.449 100.746,145.373C101.428,148.533 101.539,150.123 101.556,156.972C101.572,163.852 101.469,165.43 100.783,168.811C96.114,191.823 78.899,210.32 56.821,216.043C49.964,217.821 40.881,218.435 33.665,217.609ZM50.598,211.445C59.119,209.979 66.943,206.606 74.098,201.312C77.562,198.748 83.214,192.94 85.763,189.325C98.902,170.688 99.297,145.718 86.75,126.81C81.529,118.941 75.172,113.49 65.944,108.969C51.23,101.76 35.284,101.166 19.729,107.248C8.848,111.502 -0.771,120.313 -6.579,131.346C-8.874,135.705 -9.866,138.251 -11.137,143.038C-12.654,148.754 -13.011,152.306 -12.802,159.594C-12.654,164.728 -12.446,166.689 -11.733,169.672C-7.903,185.698 2.283,198.786 16.626,206.112C22.571,209.149 29.16,211.224 35.381,212.018C38.637,212.434 46.59,212.134 50.598,211.445ZM40.544,201.552C39.358,201.234 38.957,200.337 38.957,198.004L38.957,195.778L41.217,195.778C43.303,195.778 43.463,195.832 43.292,196.484C43.066,197.349 43.279,197.358 47.865,196.666C55.811,195.469 62.187,192.268 68.147,186.485C71.593,183.141 74.009,179.759 76.17,175.257C78.674,170.038 79.555,166.262 79.777,159.795C80.012,152.943 79.369,149.392 76.671,142.642C76.255,141.602 76.306,141.448 77.568,139.908C78.304,139.01 79.043,138.275 79.21,138.275C80.122,138.275 83.119,146.294 83.921,150.876C84.617,154.858 84.617,162.008 83.919,166.009C80.93,183.15 67.788,196.996 50.951,200.744C47.899,201.423 41.824,201.895 40.544,201.552L40.544,201.552ZM35.687,187.752C34.455,185.666 33.161,183.523 32.81,182.99L32.173,182.02L50.232,182.02L47.346,186.782L44.46,191.545L37.926,191.545L35.687,187.752ZM0.735,187.223C-3.839,180.795 -6.727,173.768 -8.127,165.657C-8.425,163.934 -8.668,161.99 -8.668,161.336L-8.668,160.147L2.846,160.147L3.27,163.326C4.01,168.885 6.13,174.572 9.113,179.001L10.763,181.451L6.786,185.439C4.598,187.633 2.695,189.428 2.556,189.428C2.417,189.428 1.598,188.436 0.735,187.223ZM29.797,177.457C29.3,176.528 29.334,170.869 29.842,169.914C30.693,168.316 30.903,168.284 40.832,168.273C50.45,168.261 51.279,168.36 52.263,169.642C52.846,170.401 52.87,177.138 52.292,177.716C51.981,178.027 48.986,178.139 41.015,178.139C30.646,178.139 30.146,178.109 29.797,177.457L29.797,177.457ZM32.254,160.916C32.254,156.696 32.862,154.7 34.734,152.771C36.715,150.73 38.017,150.174 41.25,149.99C42.802,149.902 44.39,149.665 44.778,149.464C45.166,149.263 52.764,143.956 61.663,137.671C70.562,131.386 77.916,126.317 78.005,126.406C78.216,126.617 77.235,128.517 75.882,130.514C73.134,134.571 63.741,145.278 49.807,160.236L45.946,164.381L32.254,164.381L32.254,160.916ZM42.767,159.785C43.83,158.794 44.054,157.596 43.408,156.348C42.825,155.22 42.211,154.856 40.897,154.856C39.583,154.856 38.969,155.22 38.386,156.348C37.397,158.259 38.752,160.5 40.897,160.5C41.516,160.5 42.335,160.187 42.767,159.785ZM-8.668,154.457C-8.668,149.742 -6.194,140.366 -3.557,135.087C-2.332,132.635 0.63,127.96 2.245,125.928L2.946,125.046L7.341,129.422L11.735,133.797L10.329,135.701C7.052,140.136 4.421,146.48 3.498,152.166C3.211,153.936 2.976,155.504 2.975,155.649C2.974,155.795 0.354,155.914 -2.847,155.914L-8.668,155.914L-8.668,154.457ZM9.732,126.513L5.389,122.159L7.797,119.951C15.298,113.074 25.334,108.873 36.928,107.757L39.31,107.527L39.31,113.722C39.31,120.78 39.697,120.043 35.782,120.431C29.958,121.008 22.469,124.23 17.334,128.367C15.628,129.742 14.197,130.867 14.154,130.867C14.111,130.867 12.121,128.908 9.732,126.513ZM64.004,127.486C59.962,124.218 53.247,121.391 47.708,120.628C46.096,120.405 44.42,120.155 43.984,120.07C43.197,119.919 43.19,119.865 43.19,113.767L43.19,107.617L45.042,107.798C55.809,108.852 64.372,112.061 72.3,118.011C76.68,121.299 76.788,120.663 71.08,125.182C68.355,127.338 66.085,129.092 66.035,129.079C65.985,129.066 65.071,128.349 64.004,127.486ZM116.571,200.133C116.572,199.969 116.533,192.482 116.483,183.495L116.391,167.155L126.269,167.286C134.647,167.397 136.399,167.512 137.803,168.042C139.999,168.871 142.421,171.052 143.438,173.116C144.234,174.732 144.261,175.08 144.261,183.607C144.261,192.153 144.235,192.485 143.417,194.294C142.398,196.55 140.425,198.321 137.762,199.37C135.944,200.087 135.062,200.157 126.181,200.289C120.894,200.367 116.569,200.297 116.571,200.133L116.571,200.133ZM135.858,193.46C137.936,191.933 138.124,191.042 138.012,183.254C137.9,175.469 137.828,175.182 135.618,173.798C134.504,173.099 133.823,173.012 128.65,172.905L122.918,172.787L122.918,194.413L128.891,194.302C134.275,194.201 134.961,194.118 135.858,193.46ZM147.342,199.923C147.429,199.681 150.017,192.219 153.093,183.343L158.687,167.203L167.625,167.203L168.185,168.702C169.576,172.424 179.01,199.742 179.01,200.048C179.01,200.252 177.7,200.35 175.775,200.289L172.54,200.188L171.336,196.572L170.131,192.956L156.218,192.956L155.021,196.66L153.823,200.364L150.504,200.364C147.999,200.364 147.223,200.256 147.342,199.923ZM167.911,186.341C167.6,185.534 163.605,173.88 163.416,173.227C163.336,172.951 162.501,174.935 161.561,177.637C160.621,180.338 159.487,183.541 159.04,184.754L158.227,186.959L163.188,186.959C167.768,186.959 168.131,186.911 167.911,186.341ZM183.243,200.424L183.243,194.367L191.34,194.367C196.523,194.367 199.747,194.226 200.297,193.975C201.333,193.503 201.94,192.284 201.94,190.675C201.94,187.977 201.404,187.69 193.686,186.27C187.386,185.111 185.638,184.459 184.178,182.725C182.883,181.185 182.44,179.157 182.6,175.493C182.785,171.261 183.671,169.552 186.393,168.173L188.308,167.203L206.879,167.203L206.879,172.847L198.589,172.847C188.762,172.847 188.887,172.802 188.887,176.367C188.887,178.21 188.995,178.546 189.743,179.036C190.213,179.344 193.472,180.134 196.985,180.791C204.309,182.162 205.768,182.79 207.169,185.18C208,186.599 208.096,187.126 208.105,190.3C208.118,195.638 206.935,198.029 203.528,199.542C202.317,200.08 200.774,200.188 192.68,200.297L183.243,200.424ZM213.582,183.797L213.582,167.203L216.845,167.203L220.108,167.202L219.902,180.256L234.043,180.256L234.043,167.203L240.393,167.203L240.393,200.364L234.043,200.364L234.043,185.9L219.906,185.9L219.99,200.188L213.582,200.391L213.582,183.797L213.582,183.797ZM116.215,136.688L116.215,115.697L124.682,115.697L124.682,135.797L131.96,126.717C135.964,121.724 139.645,117.201 140.14,116.668C141.04,115.699 141.051,115.697 145.927,115.697C150.478,115.697 150.788,115.74 150.462,116.315C150.269,116.654 146.607,121.209 142.324,126.437C138.041,131.664 134.614,136.143 134.708,136.39C134.803,136.636 138.816,141.376 143.627,146.923C148.438,152.469 152.428,157.158 152.492,157.343C152.563,157.546 150.543,157.666 147.377,157.648L142.144,157.618L133.501,147.489L124.858,137.359L124.671,157.678L116.215,157.678L116.215,136.688ZM157.137,157.678L157.137,115.697L165.428,115.697L165.428,150.446L183.243,150.446L183.243,154.062L183.243,157.678L157.137,157.678ZM189.593,157.678L189.593,115.697L197.707,115.697L197.707,157.678L189.593,157.678ZM205.821,157.678L205.821,115.697L217.741,115.697C230.786,115.697 232.398,115.884 235.454,117.748C237.183,118.803 239.094,121.346 239.698,123.396C240.288,125.397 240.522,131.483 240.111,134.109C239.446,138.348 237.7,140.766 234.073,142.466C232.136,143.375 231.953,143.392 223.195,143.505L214.287,143.62L214.287,157.678L205.821,157.678ZM229.34,135.475C230.149,135.108 230.982,134.487 231.192,134.095C231.402,133.703 231.573,131.792 231.573,129.848C231.573,123.511 231.288,123.324 221.343,123.169L214.111,123.057L214.111,136.159L220.99,136.151C226.976,136.144 228.06,136.056 229.34,135.475L229.34,135.475Z" style="fill-rule:nonzero;"/>
        <clipPath id="_clip1">
            <path id="path411" serif:id="path41" d="M33.665,217.609C30.211,217.213 23.291,215.474 19.73,214.106C-1.096,206.106 -15.978,186.829 -18.531,164.543C-21.15,141.684 -11.093,119.584 7.696,106.905C18.056,99.914 31.843,96.451 45.667,97.367C57.849,98.174 70.31,102.79 78.997,109.714C81.61,111.797 86.688,116.921 88.949,119.756C94.695,126.963 98.603,135.449 100.746,145.373C101.428,148.533 101.539,150.123 101.556,156.972C101.572,163.852 101.469,165.43 100.783,168.811C96.114,191.823 78.899,210.32 56.821,216.043C49.964,217.821 40.881,218.435 33.665,217.609ZM50.598,211.445C59.119,209.979 66.943,206.606 74.098,201.312C77.562,198.748 83.214,192.94 85.763,189.325C98.902,170.688 99.297,145.718 86.75,126.81C81.529,118.941 75.172,113.49 65.944,108.969C51.23,101.76 35.284,101.166 19.729,107.248C8.848,111.502 -0.771,120.313 -6.579,131.346C-8.874,135.705 -9.866,138.251 -11.137,143.038C-12.654,148.754 -13.011,152.306 -12.802,159.594C-12.654,164.728 -12.446,166.689 -11.733,169.672C-7.903,185.698 2.283,198.786 16.626,206.112C22.571,209.149 29.16,211.224 35.381,212.018C38.637,212.434 46.59,212.134 50.598,211.445ZM40.544,201.552C39.358,201.234 38.957,200.337 38.957,198.004L38.957,195.778L41.217,195.778C43.303,195.778 43.463,195.832 43.292,196.484C43.066,197.349 43.279,197.358 47.865,196.666C55.811,195.469 62.187,192.268 68.147,186.485C71.593,183.141 74.009,179.759 76.17,175.257C78.674,170.038 79.555,166.262 79.777,159.795C80.012,152.943 79.369,149.392 76.671,142.642C76.255,141.602 76.306,141.448 77.568,139.908C78.304,139.01 79.043,138.275 79.21,138.275C80.122,138.275 83.119,146.294 83.921,150.876C84.617,154.858 84.617,162.008 83.919,166.009C80.93,183.15 67.788,196.996 50.951,200.744C47.899,201.423 41.824,201.895 40.544,201.552L40.544,201.552ZM35.687,187.752C34.455,185.666 33.161,183.523 32.81,182.99L32.173,182.02L50.232,182.02L47.346,186.782L44.46,191.545L37.926,191.545L35.687,187.752ZM0.735,187.223C-3.839,180.795 -6.727,173.768 -8.127,165.657C-8.425,163.934 -8.668,161.99 -8.668,161.336L-8.668,160.147L2.846,160.147L3.27,163.326C4.01,168.885 6.13,174.572 9.113,179.001L10.763,181.451L6.786,185.439C4.598,187.633 2.695,189.428 2.556,189.428C2.417,189.428 1.598,188.436 0.735,187.223ZM29.797,177.457C29.3,176.528 29.334,170.869 29.842,169.914C30.693,168.316 30.903,168.284 40.832,168.273C50.45,168.261 51.279,168.36 52.263,169.642C52.846,170.401 52.87,177.138 52.292,177.716C51.981,178.027 48.986,178.139 41.015,178.139C30.646,178.139 30.146,178.109 29.797,177.457L29.797,177.457ZM32.254,160.916C32.254,156.696 32.862,154.7 34.734,152.771C36.715,150.73 38.017,150.174 41.25,149.99C42.802,149.902 44.39,149.665 44.778,149.464C45.166,149.263 52.764,143.956 61.663,137.671C70.562,131.386 77.916,126.317 78.005,126.406C78.216,126.617 77.235,128.517 75.882,130.514C73.134,134.571 63.741,145.278 49.807,160.236L45.946,164.381L32.254,164.381L32.254,160.916ZM42.767,159.785C43.83,158.794 44.054,157.596 43.408,156.348C42.825,155.22 42.211,154.856 40.897,154.856C39.583,154.856 38.969,155.22 38.386,156.348C37.397,158.259 38.752,160.5 40.897,160.5C41.516,160.5 42.335,160.187 42.767,159.785ZM-8.668,154.457C-8.668,149.742 -6.194,140.366 -3.557,135.087C-2.332,132.635 0.63,127.96 2.245,125.928L2.946,125.046L7.341,129.422L11.735,133.797L10.329,135.701C7.052,140.136 4.421,146.48 3.498,152.166C3.211,153.936 2.976,155.504 2.975,155.649C2.974,155.795 0.354,155.914 -2.847,155.914L-8.668,155.914L-8.668,154.457ZM9.732,126.513L5.389,122.159L7.797,119.951C15.298,113.074 25.334,108.873 36.928,107.757L39.31,107.527L39.31,113.722C39.31,120.78 39.697,120.043 35.782,120.431C29.958,121.008 22.469,124.23 17.334,128.367C15.628,129.742 14.197,130.867 14.154,130.867C14.111,130.867 12.121,128.908 9.732,126.513ZM64.004,127.486C59.962,124.218 53.247,121.391 47.708,120.628C46.096,120.405 44.42,120.155 43.984,120.07C43.197,119.919 43.19,119.865 43.19,113.767L43.19,107.617L45.042,107.798C55.809,108.852 64.372,112.061 72.3,118.011C76.68,121.299 76.788,120.663 71.08,125.182C68.355,127.338 66.085,129.092 66.035,129.079C65.985,129.066 65.071,128.349 64.004,127.486ZM116.571,200.133C116.572,199.969 116.533,192.482 116.483,183.495L116.391,167.155L126.269,167.286C134.647,167.397 136.399,167.512 137.803,168.042C139.999,168.871 142.421,171.052 143.438,173.116C144.234,174.732 144.261,175.08 144.261,183.607C144.261,192.153 144.235,192.485 143.417,194.294C142.398,196.55 140.425,198.321 137.762,199.37C135.944,200.087 135.062,200.157 126.181,200.289C120.894,200.367 116.569,200.297 116.571,200.133L116.571,200.133ZM135.858,193.46C137.936,191.933 138.124,191.042 138.012,183.254C137.9,175.469 137.828,175.182 135.618,173.798C134.504,173.099 133.823,173.012 128.65,172.905L122.918,172.787L122.918,194.413L128.891,194.302C134.275,194.201 134.961,194.118 135.858,193.46ZM147.342,199.923C147.429,199.681 150.017,192.219 153.093,183.343L158.687,167.203L167.625,167.203L168.185,168.702C169.576,172.424 179.01,199.742 179.01,200.048C179.01,200.252 177.7,200.35 175.775,200.289L172.54,200.188L171.336,196.572L170.131,192.956L156.218,192.956L155.021,196.66L153.823,200.364L150.504,200.364C147.999,200.364 147.223,200.256 147.342,199.923ZM167.911,186.341C167.6,185.534 163.605,173.88 163.416,173.227C163.336,172.951 162.501,174.935 161.561,177.637C160.621,180.338 159.487,183.541 159.04,184.754L158.227,186.959L163.188,186.959C167.768,186.959 168.131,186.911 167.911,186.341ZM183.243,200.424L183.243,194.367L191.34,194.367C196.523,194.367 199.747,194.226 200.297,193.975C201.333,193.503 201.94,192.284 201.94,190.675C201.94,187.977 201.404,187.69 193.686,186.27C187.386,185.111 185.638,184.459 184.178,182.725C182.883,181.185 182.44,179.157 182.6,175.493C182.785,171.261 183.671,169.552 186.393,168.173L188.308,167.203L206.879,167.203L206.879,172.847L198.589,172.847C188.762,172.847 188.887,172.802 188.887,176.367C188.887,178.21 188.995,178.546 189.743,179.036C190.213,179.344 193.472,180.134 196.985,180.791C204.309,182.162 205.768,182.79 207.169,185.18C208,186.599 208.096,187.126 208.105,190.3C208.118,195.638 206.935,198.029 203.528,199.542C202.317,200.08 200.774,200.188 192.68,200.297L183.243,200.424ZM213.582,183.797L213.582,167.203L216.845,167.203L220.108,167.202L219.902,180.256L234.043,180.256L234.043,167.203L240.393,167.203L240.393,200.364L234.043,200.364L234.043,185.9L219.906,185.9L219.99,200.188L213.582,200.391L213.582,183.797L213.582,183.797ZM116.215,136.688L116.215,115.697L124.682,115.697L124.682,135.797L131.96,126.717C135.964,121.724 139.645,117.201 140.14,116.668C141.04,115.699 141.051,115.697 145.927,115.697C150.478,115.697 150.788,115.74 150.462,116.315C150.269,116.654 146.607,121.209 142.324,126.437C138.041,131.664 134.614,136.143 134.708,136.39C134.803,136.636 138.816,141.376 143.627,146.923C148.438,152.469 152.428,157.158 152.492,157.343C152.563,157.546 150.543,157.666 147.377,157.648L142.144,157.618L133.501,147.489L124.858,137.359L124.671,157.678L116.215,157.678L116.215,136.688ZM157.137,157.678L157.137,115.697L165.428,115.697L165.428,150.446L183.243,150.446L183.243,154.062L183.243,157.678L157.137,157.678ZM189.593,157.678L189.593,115.697L197.707,115.697L197.707,157.678L189.593,157.678ZM205.821,157.678L205.821,115.697L217.741,115.697C230.786,115.697 232.398,115.884 235.454,117.748C237.183,118.803 239.094,121.346 239.698,123.396C240.288,125.397 240.522,131.483 240.111,134.109C239.446,138.348 237.7,140.766 234.073,142.466C232.136,143.375 231.953,143.392 223.195,143.505L214.287,143.62L214.287,157.678L205.821,157.678ZM229.34,135.475C230.149,135.108 230.982,134.487 231.192,134.095C231.402,133.703 231.573,131.792 231.573,129.848C231.573,123.511 231.288,123.324 221.343,123.169L214.111,123.057L214.111,136.159L220.99,136.151C226.976,136.144 228.06,136.056 229.34,135.475L229.34,135.475Z" clip-rule="nonzero"/>
        </clipPath>
        <g clip-path="url(#_clip1)">
            <g transform="matrix(0.352778,0,0,0.352778,-37.7741,89.1652)">
                <path d="M202.505,364.091C192.714,362.97 173.097,358.04 163.005,354.163C103.969,331.487 61.784,276.842 54.548,213.669C47.125,148.873 75.631,86.225 128.891,50.286C158.258,30.47 197.341,20.652 236.525,23.248C271.059,25.537 306.381,38.622 331.005,58.248C338.412,64.152 352.806,78.677 359.216,86.716C375.504,107.142 386.582,131.198 392.655,159.33C394.589,168.287 394.903,172.793 394.95,192.209C394.998,211.712 394.706,216.183 392.762,225.766C379.527,291 330.727,343.43 268.144,359.654C248.708,364.692 222.959,366.433 202.505,364.091ZM250.505,346.619C274.659,342.465 296.837,332.902 317.118,317.895C326.937,310.63 342.959,294.166 350.183,283.919C387.429,231.087 388.547,160.307 352.982,106.709C338.181,84.404 320.162,68.953 294.005,56.138C252.294,35.702 207.093,34.018 163.001,51.258C132.158,63.316 104.892,88.293 88.427,119.568C81.922,131.924 79.108,139.142 75.507,152.71C71.207,168.914 70.194,178.982 70.788,199.641C71.206,214.192 71.795,219.753 73.816,228.209C84.674,273.635 113.548,310.736 154.206,331.504C171.056,340.111 189.735,345.993 207.37,348.244C216.598,349.422 239.142,348.573 250.505,346.619Z" style="fill:rgb(45,75,84);"/>
            </g>
            <g transform="matrix(0.352778,0,0,0.352778,-37.7741,89.1652)">
                <path d="M222.005,318.577C218.643,317.676 217.505,315.132 217.505,308.518L217.505,302.21L223.911,302.21C229.825,302.21 230.277,302.363 229.795,304.209C229.153,306.663 229.758,306.687 242.756,304.728C265.281,301.333 283.355,292.259 300.248,275.867C310.016,266.388 316.867,256.801 322.991,244.04C330.09,229.245 332.587,218.543 333.215,200.21C333.881,180.787 332.058,170.722 324.411,151.587C323.233,148.64 323.376,148.204 326.954,143.837C329.04,141.292 331.134,139.21 331.608,139.21C334.193,139.21 342.69,161.939 344.962,174.928C346.937,186.216 346.934,206.485 344.957,217.824C336.484,266.412 299.231,305.663 251.505,316.286C242.853,318.212 225.632,319.549 222.005,318.577Z" style="fill:rgb(45,75,84);"/>
            </g>
            <g transform="matrix(0.352778,0,0,0.352778,-37.7741,89.1652)">
                <path d="M109.159,277.96C96.194,259.737 88.009,239.819 84.039,216.829C83.195,211.944 82.505,206.431 82.505,204.579L82.505,201.209L115.145,201.209L116.344,210.22C118.442,225.977 124.453,242.099 132.909,254.653L137.587,261.596L126.312,272.903C120.111,279.122 114.715,284.21 114.322,284.21C113.928,284.21 111.605,281.397 109.159,277.96Z" style="fill:rgb(45,75,84);"/>
            </g>
            <g transform="matrix(0.352778,0,0,0.352778,-37.7741,89.1652)">
                <path d="M198.505,203.388C198.505,191.425 200.227,185.767 205.534,180.299C211.149,174.513 214.84,172.938 224.005,172.417C228.405,172.167 232.905,171.496 234.005,170.926C235.105,170.355 256.644,155.312 281.869,137.496C307.094,119.681 327.94,105.311 328.193,105.564C328.792,106.164 326.01,111.548 322.176,117.21C314.386,128.71 287.76,159.059 248.261,201.46L237.316,213.21L198.505,213.21L198.505,203.388ZM228.304,200.182C231.318,197.374 231.953,193.976 230.123,190.438C228.471,187.243 226.731,186.21 223.005,186.21C219.279,186.21 217.539,187.243 215.886,190.438C213.084,195.857 216.926,202.21 223.005,202.21C224.76,202.21 227.081,201.321 228.304,200.182Z" style="fill:rgb(98,114,119);"/>
            </g>
            <g transform="matrix(0.352778,0,0,0.352778,-37.7741,89.1652)">
                <path d="M191.54,250.275C190.13,247.641 190.227,231.601 191.668,228.894C194.081,224.364 194.676,224.275 222.821,224.241C250.084,224.209 252.434,224.49 255.223,228.123C256.876,230.275 256.944,249.371 255.305,251.01C254.424,251.891 245.935,252.21 223.34,252.21C193.947,252.21 192.529,252.123 191.54,250.275Z" style="fill:rgb(98,114,119);"/>
            </g>
            <g transform="matrix(0.352778,0,0,0.352778,-37.7741,89.1652)">
                <path d="M208.236,279.459C204.745,273.547 201.076,267.472 200.082,265.959L198.275,263.209L249.468,263.209L241.286,276.709L233.104,290.209L214.583,290.209L208.236,279.459Z" style="fill:rgb(77,95,101);"/>
            </g>
            <g transform="matrix(0.352778,0,0,0.352778,-37.7741,89.1652)">
                <path d="M82.505,185.079C82.505,171.713 89.518,145.136 96.994,130.173C100.466,123.222 108.861,109.969 113.44,104.21L115.428,101.71L127.884,114.113L140.341,126.516L136.355,131.912C127.067,144.485 119.607,162.467 116.993,178.584C116.179,183.603 115.511,188.047 115.509,188.46C115.507,188.872 108.08,189.21 99.005,189.21L82.505,189.21L82.505,185.079Z" style="fill:rgb(80,122,126);"/>
            </g>
            <g transform="matrix(0.352778,0,0,0.352778,-37.7741,89.1652)">
                <path d="M134.663,105.868L122.352,93.527L129.178,87.268C150.44,67.774 178.89,55.865 211.755,52.7L218.505,52.05L218.505,69.611C218.505,89.616 219.603,87.529 208.505,88.628C191.996,90.263 170.768,99.396 156.213,111.125C151.377,115.021 147.32,118.21 147.198,118.21C147.075,118.21 141.435,112.656 134.663,105.868Z" style="fill:rgb(105,154,155);"/>
            </g>
            <g transform="matrix(0.352778,0,0,0.352778,-37.7741,89.1652)">
                <path d="M288.505,108.626C277.048,99.361 258.013,91.35 242.312,89.185C237.743,88.555 232.992,87.844 231.755,87.605C229.524,87.175 229.505,87.022 229.505,69.738L229.505,52.304L234.755,52.818C265.275,55.806 289.548,64.901 312.02,81.768C324.437,91.088 324.743,89.286 308.562,102.094C300.838,108.207 294.403,113.179 294.262,113.141C294.12,113.104 291.53,111.072 288.505,108.626Z" style="fill:rgb(105,153,156);"/>
            </g>
            <g transform="matrix(0.352778,0,0,0.352778,-37.7741,89.1652)">
                <path d="M436.505,134.71L436.505,75.209L460.505,75.209L460.505,132.185L481.137,106.447C492.485,92.292 502.919,79.472 504.324,77.96C506.874,75.215 506.906,75.209 520.727,75.209C533.627,75.209 534.507,75.329 533.582,76.96C533.036,77.922 522.655,90.834 510.514,105.652C498.372,120.47 488.658,133.166 488.926,133.865C489.194,134.564 500.572,147.999 514.209,163.722C527.847,179.445 539.155,192.737 539.338,193.259C539.54,193.834 533.813,194.176 524.838,194.125L510.005,194.041L485.505,165.327L461.005,136.613L460.475,194.21L436.505,194.21L436.505,134.71Z" style="fill:rgb(192,202,202);"/>
            </g>
            <g transform="matrix(0.352778,0,0,0.352778,-37.7741,89.1652)">
                <path d="M552.505,194.21L552.505,75.209L576.005,75.209L576.005,173.709L626.506,173.709L626.505,183.96L626.505,194.21L552.505,194.21Z" style="fill:rgb(192,202,202);"/>
            </g>
            <g transform="matrix(0.352778,0,0,0.352778,-37.7741,89.1652)">
                <rect x="644.505" y="75.209" width="23" height="119" style="fill:rgb(192,202,202);"/>
            </g>
            <g transform="matrix(0.352778,0,0,0.352778,-37.7741,89.1652)">
                <path d="M690.505,194.21L690.505,75.209L724.295,75.209C761.272,75.209 765.842,75.739 774.505,81.023C779.406,84.012 784.822,91.22 786.535,97.032C788.207,102.706 788.871,119.955 787.705,127.399C785.821,139.416 780.871,146.269 770.591,151.09C765.098,153.666 764.582,153.715 739.755,154.035L714.505,154.361L714.505,194.21L690.505,194.21ZM757.174,131.272C759.467,130.231 761.83,128.471 762.424,127.36C763.019,126.25 763.505,120.833 763.505,115.322C763.505,97.358 762.695,96.829 734.505,96.39L714.005,96.07L714.005,133.209L733.505,133.187C750.472,133.167 753.546,132.919 757.174,131.272Z" style="fill:rgb(192,202,202);"/>
            </g>
            <g transform="matrix(0.352778,0,0,0.352778,-37.7741,89.1652)">
                <path d="M712.505,315.285L712.505,221.21L721.755,221.209L731.005,221.207L730.419,258.21L770.505,258.21L770.505,221.21L788.505,221.21L788.505,315.21L770.505,315.21L770.505,274.21L730.431,274.21L730.669,314.71L712.505,315.285Z" style="fill:rgb(192,202,202);"/>
            </g>
            <g transform="matrix(0.352778,0,0,0.352778,-37.7741,89.1652)">
                <path d="M626.505,315.379L626.505,298.21L649.458,298.21C664.15,298.21 673.288,297.81 674.848,297.099C677.784,295.761 679.505,292.305 679.505,287.744C679.505,280.096 677.984,279.284 656.108,275.258C638.249,271.971 633.293,270.123 629.157,265.208C625.485,260.844 624.23,255.094 624.684,244.71C625.208,232.712 627.717,227.868 635.434,223.96L640.863,221.21L693.505,221.21L693.505,237.209L670.005,237.209C642.149,237.209 642.505,237.08 642.505,247.186C642.505,252.409 642.811,253.364 644.93,254.752C646.264,255.626 655.502,257.865 665.459,259.728C686.221,263.612 690.357,265.394 694.327,272.169C696.683,276.189 696.956,277.683 696.979,286.68C697.018,301.814 693.663,308.59 684.005,312.881C680.574,314.405 676.199,314.709 653.255,315.018L626.505,315.379Z" style="fill:rgb(192,202,202);"/>
            </g>
            <g transform="matrix(0.352778,0,0,0.352778,-37.7741,89.1652)">
                <path d="M524.739,313.96C524.986,313.272 532.322,292.122 541.042,266.96L556.896,221.21L582.233,221.21L583.821,225.459C587.764,236.01 614.505,313.447 614.505,314.314C614.505,314.892 610.794,315.168 605.336,314.997L596.167,314.71L592.752,304.46L589.338,294.21L549.898,294.21L546.505,304.709L543.111,315.21L533.701,315.21C526.601,315.21 524.401,314.903 524.739,313.96ZM583.044,275.459C582.162,273.172 570.839,240.137 570.302,238.286C570.075,237.502 567.709,243.127 565.045,250.786C562.381,258.444 559.164,267.522 557.898,270.959L555.595,277.209L569.657,277.209C582.64,277.209 583.667,277.075 583.044,275.459Z" style="fill:rgb(192,202,202);"/>
            </g>
            <g transform="matrix(0.352778,0,0,0.352778,-37.7741,89.1652)">
                <path d="M437.513,314.554C437.516,314.09 437.405,292.866 437.263,267.391L437.005,221.073L465.005,221.445C488.752,221.76 493.718,222.085 497.699,223.588C503.924,225.937 510.789,232.12 513.671,237.971C515.927,242.552 516.005,243.538 516.005,267.709C516.005,291.933 515.93,292.874 513.613,298.003C510.724,304.397 505.132,309.418 497.584,312.393C492.43,314.425 489.929,314.623 464.755,314.996C449.767,315.217 437.508,315.018 437.513,314.554ZM492.185,295.638C498.077,291.311 498.61,288.784 498.293,266.71C497.975,244.641 497.769,243.828 491.505,239.903C488.347,237.924 486.418,237.677 471.755,237.373L455.505,237.037L455.505,298.341L472.435,298.025C487.698,297.741 489.643,297.505 492.185,295.638Z" style="fill:rgb(192,202,202);"/>
            </g>
        </g>
    </g>
</svg>
